# xmcd
#
# Track frame offsets:
#	200
#	14002
#	23827
#	37152
#	48600
#	63450
#	76230
#	89025
#	103915
#	116727
#	129422
#	141320
#
# Disc length: 2045 seconds
#
# Revision: 1
# Processed by: cddbd v1.5.1PL0 Copyright (c) Steve Scherf et al.
# Submitted via: audiograbber 1.82.02
#
DISCID=b107fb0c
DTITLE=Larry Sparks - Sings Hank Williams
DYEAR=1991
DGENRE=Country
TTITLE0=No one will ever know
TTITLE1=Dixie Cannonball
TTITLE2=Someday You'll Call My Name
TTITLE3=I'm So Lonesome I could Cry
TTITLE4=Battle of Armegeddon
TTITLE5=Waltz of the Wind
TTITLE6=Singing Waterfall
TTITLE7=Mind Your Own Business
TTITLE8=My Heart Would Know
TTITLE9=I Saw The Light
TTITLE10=Mansion on the Hill
TTITLE11=Blue Love
EXTD=Rebel CD-1694
EXTT0=
EXTT1=
EXTT2=
EXTT3=
EXTT4=
EXTT5=
EXTT6=
EXTT7=
EXTT8=
EXTT9=
EXTT10=
EXTT11=
PLAYORDER=
